<svg width="780" height="851" viewBox="0 0 780 851" fill="none" xmlns="http://www.w3.org/2000/svg">
    <path
        d="M501.072 69.7229L436.006 50.3004C435.459 50.1369 434.886 50.4649 434.749 51.0198L427.5 80.5L419.355 112.601C419.183 113.278 419.741 113.918 420.435 113.841L422.91 113.566C423.274 113.525 423.63 113.686 423.84 113.986L426.701 118.073C426.889 118.341 427.194 118.5 427.521 118.5H436.124C436.366 118.5 436.6 118.588 436.783 118.747L440.159 121.701C440.376 121.891 440.5 122.165 440.5 122.454V132.223C440.5 132.404 440.451 132.582 440.357 132.738L439 135L431 149L422.541 164.424C422.514 164.475 422.491 164.527 422.472 164.582L416.054 183.343C416.018 183.447 416 183.556 416 183.666V195.985C416 196.27 416.23 196.5 416.515 196.5C416.787 196.5 417.012 196.712 417.028 196.984L417.49 204.838C417.497 204.945 417.52 205.051 417.56 205.151L418.44 207.35C418.48 207.449 418.503 207.554 418.51 207.661L419.984 232.237C419.995 232.41 420.049 232.576 420.143 232.721L425.309 240.705C425.433 240.896 425.617 241.039 425.833 241.111L426.56 241.353C426.839 241.446 427.063 241.658 427.172 241.931L427.77 243.426C427.911 243.778 428.238 244.02 428.616 244.051L433.681 244.473C433.889 244.491 434.085 244.572 434.244 244.707L440.391 249.908C440.463 249.969 440.544 250.02 440.631 250.058L444.806 251.914C444.934 251.971 445.072 252 445.212 252H447.264C447.419 252 447.572 251.964 447.711 251.894L449.278 251.111C449.424 251.038 449.55 250.931 449.644 250.798L452 247.5L455.403 241.667C455.467 241.557 455.552 241.46 455.652 241.381L459.922 238.061C459.974 238.02 460.03 237.985 460.089 237.956L463.63 236.185C463.867 236.067 464.047 235.859 464.131 235.607L464.272 235.184C464.408 234.775 464.79 234.5 465.221 234.5H476.882C477.261 234.5 477.607 234.714 477.776 235.053L480.224 239.947C480.393 240.286 480.739 240.5 481.118 240.5H483.264C483.419 240.5 483.572 240.464 483.711 240.394L487.229 238.635C487.406 238.547 487.605 238.513 487.8 238.538L491.33 238.979C491.443 238.993 491.552 239.026 491.653 239.077L494.289 240.394C494.428 240.464 494.581 240.5 494.736 240.5H497.434C497.785 240.5 498.111 240.316 498.291 240.014L502.357 233.238C502.451 233.082 502.5 232.904 502.5 232.723V229.599C502.5 229.533 502.507 229.467 502.519 229.403L503.33 225.348C503.428 224.861 503.868 224.519 504.364 224.545L512.423 224.97C512.78 224.988 513.1 225.196 513.262 225.515L516.533 231.953C516.703 232.289 517.048 232.5 517.424 232.5H519.5H526H527L530.46 232.067C530.793 232.026 531.077 231.806 531.2 231.494C531.371 231.062 531.192 230.57 530.784 230.349L529.363 229.58C529.265 229.527 529.177 229.458 529.102 229.377L526.264 226.287C526.094 226.102 526 225.861 526 225.61V225.414C526 225.149 526.105 224.895 526.293 224.707L526.707 224.293C526.895 224.105 527 223.851 527 223.586V219.342C527 218.877 527.377 218.5 527.842 218.5C528.229 218.5 528.566 218.763 528.66 219.138L529.311 221.743C529.422 222.188 529.822 222.5 530.281 222.5H530.736C531.187 222.5 531.582 222.198 531.701 221.763L533 217L534.456 213.117C534.485 213.039 534.505 212.958 534.514 212.876L534.819 210.133C534.901 209.388 535.744 208.996 536.367 209.411L537.918 210.445C537.972 210.482 538.023 210.523 538.07 210.57L539.146 211.646C539.369 211.869 539.474 212.183 539.429 212.495L539.045 215.188C539.016 215.39 538.922 215.578 538.777 215.723C538.6 215.9 538.5 216.141 538.5 216.392V219.697C538.5 219.895 538.558 220.088 538.668 220.252L542.332 225.748C542.442 225.912 542.5 226.105 542.5 226.303V228.763C542.5 229.201 542.786 229.588 543.205 229.718L546.356 230.692C546.451 230.722 546.551 230.737 546.651 230.737H550C550.552 230.737 551 230.289 551 229.737V228.535C551 228.201 550.833 227.889 550.555 227.703L549.945 227.297C549.667 227.111 549.5 226.799 549.5 226.465V224.5C549.5 224.224 549.724 224 550 224C550.276 224 550.5 223.776 550.5 223.5V221.414C550.5 221.149 550.605 220.895 550.793 220.707L552.707 218.793C552.895 218.605 553.149 218.5 553.414 218.5H557.275C557.423 218.5 557.569 218.467 557.703 218.404L566.797 214.096C566.931 214.033 567.077 214 567.225 214H572.62C572.863 214 573.097 214.097 573.269 214.269C573.418 214.418 573.615 214.512 573.826 214.533L578.131 214.963C578.369 214.987 578.608 214.925 578.804 214.787L582.428 212.25C582.968 211.872 583.001 211.085 582.495 210.663L581.459 209.799C580.98 209.4 581.02 208.653 581.539 208.308C581.823 208.118 581.981 207.788 581.95 207.448L581.5 202.5V198.315C581.5 198.11 581.437 197.91 581.319 197.742L578.495 193.707C578.211 193.301 577.672 193.164 577.228 193.386L572.447 195.776C571.782 196.109 571 195.625 571 194.882V188.287C571 188.099 570.947 187.916 570.848 187.757L566.152 180.243C566.053 180.084 566 179.901 566 179.713V174.987C566 174.688 565.832 174.416 565.565 174.282C565.235 174.117 565.064 173.745 565.153 173.387L565.418 172.327C565.471 172.115 565.593 171.926 565.764 171.789L567.625 170.3C567.862 170.11 568 169.823 568 169.519V169.252C568 169.087 567.959 168.924 567.88 168.778L564.548 162.589C564.516 162.53 564.5 162.465 564.5 162.399C564.5 162.179 564.679 162 564.899 162H566.441C566.784 162 567.097 162.194 567.25 162.5C567.403 162.806 567.722 163 568.064 163C568.576 163 569 162.585 569 162.073V159.803C569 159.605 568.942 159.412 568.832 159.248L568.297 158.445C568.111 158.167 567.799 158 567.465 158H566C565.448 158 565 157.552 565 157V155.75C565 155.336 565.336 155 565.75 155H565.819C566.195 155 566.5 154.695 566.5 154.319C566.5 154.117 566.41 153.925 566.255 153.796L563.86 151.8C563.632 151.61 563.5 151.328 563.5 151.032V145.951C563.5 145.418 563.918 144.979 564.45 144.952L567.05 144.821C567.582 144.794 568 144.355 568 143.822V136.777C568 136.596 567.951 136.418 567.857 136.262L566.791 134.486C566.611 134.184 566.285 134 565.934 134H561.5C560.948 134 560.5 134.448 560.5 135V135.779C560.5 136.21 560.225 136.592 559.816 136.728L559.154 136.949C559.052 136.983 558.945 137 558.838 137H557.977C557.27 137 556.786 136.285 557.049 135.629L558.406 132.236C558.468 132.081 558.49 131.913 558.47 131.748L557.544 123.874C557.516 123.633 557.4 123.41 557.22 123.248L552.714 119.192C552.574 119.067 552.473 118.904 552.421 118.724L551.538 115.635C551.513 115.545 551.5 115.453 551.5 115.36V107.662C551.5 107.555 551.517 107.448 551.551 107.346L553.949 100.154C553.983 100.052 554 99.9452 554 99.8377V91.5848C554 91.2236 553.805 90.8904 553.49 90.7133L546.633 86.8559C546.255 86.6436 546.057 86.2127 546.142 85.7882L546.318 84.911C546.421 84.3974 546.11 83.8915 545.605 83.7514L529.232 79.2034C528.8 79.0832 528.5 78.6891 528.5 78.2399V70.25C528.5 70.0859 528.46 69.9242 528.382 69.7794L524.782 63.0294C524.609 62.7035 524.269 62.5 523.9 62.5H520.303C520.105 62.5 519.912 62.4416 519.748 62.3321L513.037 57.8581C512.71 57.6401 512.286 57.6339 511.952 57.8422L505.052 62.155C504.716 62.3647 504.536 62.7527 504.592 63.1444L504.889 65.222C504.954 65.6786 504.699 66.1206 504.27 66.2919L503.129 66.7486C502.749 66.9004 502.5 67.2681 502.5 67.677V68.3377C502.5 68.4452 502.483 68.552 502.449 68.6539L502.306 69.0809C502.136 69.5931 501.589 69.8773 501.072 69.7229Z"
        stroke="black" />
    <path
        d="M550.986 87.2913L555.014 89.7087C555.316 89.8894 555.5 90.2149 555.5 90.5662V113.5V117.823C555.5 118.232 555.749 118.6 556.129 118.751L557.388 119.255C557.759 119.404 558.183 119.317 558.466 119.034L558.563 118.937C558.831 118.669 559.227 118.576 559.586 118.695L559.914 118.805C560.273 118.924 560.669 118.831 560.937 118.563L561.529 117.971C562.122 117.378 563.137 117.735 563.23 118.568L563.449 120.537C563.481 120.83 563.642 121.095 563.888 121.258L564.12 121.414C564.598 121.732 564.71 122.386 564.366 122.846L563.554 123.928C563.518 123.976 563.487 124.027 563.46 124.081L562.665 125.669C562.559 125.883 562.532 126.127 562.59 126.359L563.406 129.626C563.467 129.866 563.615 130.076 563.821 130.214L564.087 130.391C564.532 130.688 565.136 130.454 565.266 129.935C565.386 129.455 565.92 129.21 566.362 129.431L567.5 130L569.278 130.889C569.424 130.962 569.55 131.069 569.644 131.202L571.663 134.029C571.872 134.32 572.22 134.478 572.576 134.442L576.1 134.09C576.611 134.039 577 133.609 577 133.095V131.248C577 130.788 577.557 130.557 577.883 130.883C577.959 130.959 578.01 131.057 578.027 131.163L578.982 136.893C578.994 136.964 579.013 137.034 579.04 137.1L579.907 139.267C579.968 139.42 579.99 139.586 579.972 139.749L579.539 143.65C579.514 143.876 579.567 144.105 579.689 144.297L585.081 152.771C585.495 153.42 586.5 153.101 586.5 152.331C586.5 151.662 587.701 151.098 588 150.5C588.367 149.765 588.482 147.85 588.498 146.768C588.501 146.592 588.454 146.42 588.365 146.268L587.635 145.006C587.546 144.853 587.5 144.681 587.5 144.505V142.693C587.5 142.565 587.524 142.439 587.572 142.321L588.291 140.522C588.421 140.198 588.71 139.965 589.055 139.907L590.732 139.628C591.184 139.553 591.527 139.181 591.565 138.725L591.97 133.865C591.989 133.629 592.092 133.408 592.259 133.241L594.207 131.293C594.395 131.105 594.5 130.851 594.5 130.586V130.351C594.5 130.124 594.423 129.903 594.281 129.726L592.719 127.774C592.577 127.597 592.5 127.376 592.5 127.149V121.449C592.5 121.163 592.622 120.891 592.836 120.702L596.716 117.253C596.899 117.09 597.135 117 597.38 117H601.586C601.851 117 602.105 116.895 602.293 116.707L604.207 114.793C604.395 114.605 604.5 114.351 604.5 114.086V112.414C604.5 112.149 604.395 111.895 604.207 111.707L602.707 110.207C602.317 109.817 601.683 109.817 601.293 110.207L599.269 112.231C599.097 112.403 598.863 112.5 598.62 112.5C597.907 112.5 597.467 111.722 597.834 111.111L599.944 107.594C599.981 107.532 600.012 107.465 600.035 107.396L601.845 101.964C601.943 101.671 601.9 101.35 601.729 101.093L601.297 100.445C601.111 100.167 600.799 100 600.465 100H596.118C595.375 100 594.891 99.2177 595.224 98.5528L595.394 98.2111C595.464 98.0723 595.5 97.9192 595.5 97.7639V97.635C595.5 96.7872 594.511 96.324 593.86 96.8668L592.5 98L590.645 99.8549C590.549 99.9506 590.474 100.065 590.424 100.191L589.745 101.888C589.596 102.259 589.683 102.683 589.966 102.966L590.146 103.146C590.369 103.369 590.474 103.683 590.429 103.995L589.574 109.981C589.528 110.306 589.325 110.588 589.031 110.734L585.798 112.351C585.605 112.448 585.448 112.605 585.351 112.798L582.606 118.289C582.536 118.428 582.5 118.581 582.5 118.736V122.653C582.5 123.142 582.147 123.559 581.664 123.639L579.863 123.939C579.629 123.979 579.388 123.933 579.184 123.811L577.193 122.616C577.066 122.54 576.957 122.436 576.875 122.313L576.111 121.166C576.038 121.057 575.943 120.962 575.834 120.889L573.322 119.214C573.115 119.076 572.967 118.866 572.906 118.625L572.553 117.211C572.519 117.075 572.535 116.931 572.597 116.805C572.787 116.425 573.305 116.365 573.576 116.692L575.2 118.64C575.39 118.868 575.672 119 575.968 119H578.279C578.71 119 579.092 118.725 579.228 118.316L579.925 116.224C579.974 116.077 580.057 115.943 580.167 115.833L581.355 114.645C581.451 114.549 581.526 114.435 581.576 114.309L583.396 109.76C583.464 109.59 583.578 109.442 583.724 109.332L585.262 108.179C585.417 108.062 585.535 107.903 585.602 107.72L587.459 102.612C587.486 102.538 587.504 102.46 587.513 102.381L587.961 98.3486C587.986 98.123 588.087 97.9125 588.248 97.752L589.207 96.7929C589.395 96.6054 589.5 96.351 589.5 96.0858V94.7386C589.5 94.2996 589.214 93.9119 588.794 93.7828L551.794 82.3982C551.151 82.2003 550.5 82.6812 550.5 83.354V86.4338C550.5 86.7851 550.684 87.1106 550.986 87.2913Z"
        stroke="black" />
    <path
        d="M427.25 122.75L426.44 123.097C425.85 123.35 425.174 123.304 424.623 122.974L423.871 122.523C423.324 122.194 422.966 121.624 422.908 120.989L422.629 117.915C422.552 117.068 421.947 116.362 421.122 116.155L420.985 116.121C420.667 116.042 420.333 116.042 420.015 116.121L418.807 116.423C418.604 116.474 418.41 116.557 418.232 116.668L415.11 118.619C414.716 118.865 414.42 119.241 414.273 119.682L412.603 124.692C412.535 124.896 412.5 125.11 412.5 125.325V135.055C412.5 135.348 412.436 135.638 412.311 135.903L401.628 158.726C401.543 158.908 401.431 159.075 401.297 159.224L397.02 163.928C396.685 164.296 396.5 164.776 396.5 165.273V169.22C396.5 169.406 396.526 169.591 396.577 169.769L398.28 175.729C398.421 176.224 398.366 176.754 398.126 177.21L393.73 185.563C393.579 185.85 393.5 186.17 393.5 186.494V192.1C393.5 192.364 393.448 192.625 393.346 192.869L388.956 203.405C388.68 204.068 388.032 204.5 387.314 204.5V204.5C386.533 204.5 385.843 205.009 385.614 205.756L384.354 209.849C384.136 210.557 384.328 211.328 384.851 211.851L384.92 211.92C385.558 212.558 385.69 213.543 385.242 214.326L376 230.5L360.5 266L353.25 283.75L346 301.5L341.553 313.852C341.518 313.95 341.475 314.046 341.424 314.138L336 324L332.577 330.846C332.526 330.948 332.483 331.055 332.45 331.165L329.584 340.719C329.528 340.905 329.5 341.099 329.5 341.294V349.172C329.5 349.702 329.711 350.211 330.086 350.586L330.414 350.914C330.789 351.289 331 351.798 331 352.328V374.5C331 375.605 330.105 376.5 329 376.5V376.5C327.895 376.5 327 377.395 327 378.5V379C327 380.105 327.895 381 329 381V381C330.105 381 331 381.895 331 383V396.5C331 397.605 330.105 398.5 329 398.5H327C325.895 398.5 325 399.395 325 400.5V405.5V414.5V420.333C325 420.766 325.14 421.187 325.4 421.533L328.9 426.2C329.278 426.704 329.87 427 330.5 427H333.298C333.753 427 334.193 426.845 334.548 426.562L341.5 421L347.889 414.611C347.963 414.537 348.042 414.469 348.127 414.408L352.974 410.883C353.316 410.634 353.728 410.5 354.15 410.5H362.802C362.934 410.5 363.065 410.487 363.194 410.461L372.66 408.568C372.885 408.523 373.1 408.44 373.297 408.322L377.255 405.947C377.73 405.662 378.066 405.193 378.182 404.651L379.5 398.5L381.397 392.808C381.465 392.604 381.5 392.39 381.5 392.175V383V373.828C381.5 373.298 381.289 372.789 380.914 372.414L378.392 369.892C378.135 369.635 377.954 369.314 377.866 368.963L376.477 363.407C376.235 362.438 376.967 361.5 377.965 361.5V361.5C378.813 361.5 379.5 360.813 379.5 359.965V348.714C379.5 348.252 379.66 347.805 379.952 347.447L383.8 342.744C383.933 342.582 384.039 342.401 384.115 342.206L388.406 331.24C388.469 331.08 388.551 330.93 388.651 330.792L396.415 320.117C396.472 320.039 396.523 319.957 396.567 319.872L401.5 310.5L405.377 301.777C405.459 301.593 405.567 301.423 405.699 301.272L411.793 294.308C412.235 293.803 412.394 293.111 412.218 292.465L409.57 282.758C409.524 282.587 409.5 282.41 409.5 282.232V279.788C409.5 279.282 409.692 278.794 410.038 278.424L415.962 272.076C416.308 271.706 416.5 271.218 416.5 270.712V265.485C416.5 264.864 416.788 264.278 417.281 263.9L423 259.5L425.914 256.586C426.289 256.211 426.5 255.702 426.5 255.172V253.712C426.5 253.571 426.485 253.431 426.456 253.293L425.077 246.861C425.026 246.622 424.932 246.395 424.799 246.19L418.64 236.715C418.547 236.572 418.473 236.418 418.419 236.257L416.603 230.808C416.535 230.604 416.5 230.39 416.5 230.175V215.189C416.5 215.063 416.488 214.938 416.465 214.815L414.5 204.5L412.555 194.774C412.518 194.592 412.507 194.406 412.522 194.222L413.482 182.23C413.494 182.077 413.524 181.926 413.57 181.78L417.5 169.5L423 157.5L429 146L438.19 131.49C438.392 131.17 438.5 130.799 438.5 130.42V125.472C438.5 125.162 438.428 124.855 438.289 124.578L437.411 122.823C437.15 122.301 436.674 121.919 436.108 121.777L433.485 121.121C433.167 121.042 432.833 121.042 432.515 121.121L429.155 121.961C429.052 121.987 428.951 122.021 428.853 122.063L427.25 122.75ZM427.25 122.75L426.734 121.546C426.581 121.19 426.328 120.885 426.005 120.67L425 120M429 258C428.729 258.271 428.213 259.628 427.857 260.734C427.636 261.419 428.088 262.098 428.798 262.216L429.044 262.257C429.768 262.378 430.168 263.164 429.84 263.82V263.82C429.636 264.229 429.198 264.466 428.745 264.416L426.298 264.144C425.509 264.057 424.743 264.443 424.346 265.13L419.769 273.035C419.593 273.34 419.5 273.685 419.5 274.037V276.265C419.5 277.261 420.232 278.105 421.217 278.245L426.179 278.954C426.392 278.985 426.598 279.049 426.79 279.145L428.67 280.085C429.197 280.348 429.812 280.366 430.353 280.135L432.559 279.189C432.849 279.065 433.105 278.874 433.307 278.631L435.387 276.135C435.462 276.045 435.529 275.949 435.587 275.847L437.5 272.5L440.384 266.252C440.461 266.085 440.561 265.929 440.681 265.789L443.368 262.654C443.456 262.551 443.533 262.441 443.598 262.323L445.46 258.971C445.796 258.367 445.796 257.633 445.46 257.029L443.8 254.041C443.605 253.689 443.307 253.404 442.947 253.223L437.5 250.5L435.922 249.711C435.645 249.572 435.403 249.371 435.217 249.122L434.171 247.729C434.058 247.577 433.923 247.442 433.771 247.329L432.715 246.537C432.26 246.195 431.681 246.064 431.123 246.175L430.854 246.229C430.039 246.392 429.41 247.042 429.273 247.862L429.027 249.337C429.009 249.445 429 249.555 429 249.666V253.858C429 253.953 429.007 254.046 429.02 254.14C429.184 255.351 429.385 257.615 429 258ZM325 442.5V443.276C325 443.744 324.836 444.197 324.536 444.556L317.964 452.444C317.664 452.803 317.5 453.256 317.5 453.724V454.264C317.5 455.021 317.928 455.714 318.606 456.053L319.606 456.553C320.169 456.834 320.831 456.834 321.394 456.553L323.339 455.581C323.446 455.527 323.548 455.464 323.644 455.392L329.177 451.242C329.39 451.082 329.633 450.967 329.892 450.902L332.195 450.326C332.984 450.129 333.575 449.474 333.69 448.669L333.98 446.641C333.993 446.547 334 446.453 334 446.358V443.57C334 442.902 333.666 442.277 333.109 441.906L331.504 440.836C331.175 440.617 330.789 440.5 330.394 440.5H327C325.895 440.5 325 441.395 325 442.5Z"
        stroke="black" />
    <path
        d="M443.24 274.788L430.338 289.124C430.117 289.371 429.835 289.555 429.52 289.66L428.409 290.03C427.716 290.261 427 289.745 427 289.015C427 288.689 426.852 288.382 426.598 288.179L425.75 287.5C424.962 286.87 423.926 286.644 422.947 286.888L421.839 287.165C421.052 287.362 420.5 288.069 420.5 288.88C420.5 289.281 420.363 289.671 420.113 289.984L419.216 291.105C418.753 291.684 418.5 292.404 418.5 293.146C418.5 294.013 418.844 294.844 419.457 295.457L420.144 296.144C420.38 296.38 420.652 296.576 420.95 296.725L421.628 297.064C422.686 297.593 423.162 298.845 422.723 299.943C422.577 300.308 422.339 300.629 422.032 300.875L415.979 305.717C415.336 306.231 414.83 306.896 414.506 307.652L404.787 330.329C404.597 330.774 404.343 331.189 404.033 331.561L397.676 339.188C397.23 339.724 396.901 340.346 396.71 341.016L396 343.5L394.431 347.03C394.147 347.67 394 348.361 394 349.061V350.858C394 353.724 396.693 355.827 399.474 355.132C399.823 355.044 400.182 355 400.542 355H406.248C406.747 355 407.242 355.075 407.719 355.221L410.021 355.929C412.095 356.568 414.343 355.795 415.587 354.018L417 352L418.161 350.452C418.386 350.152 418.577 349.827 418.73 349.483L420.092 346.417C420.328 345.887 420.911 345.603 421.473 345.743C422.059 345.89 422.444 346.451 422.369 347.05L422.059 349.531C422.02 349.843 421.944 350.149 421.834 350.443L420.838 353.099C420.62 353.68 420.202 354.166 419.658 354.468C417.968 355.407 417.844 357.791 419.429 358.9L420.37 359.559C420.785 359.849 421.128 360.23 421.373 360.672L423.16 363.888C423.386 364.294 423.667 364.667 423.995 364.995L426.949 367.949C427.635 368.635 428.505 369.106 429.454 369.306L435.746 370.631C436.88 370.869 437.896 371.495 438.62 372.4L439.999 374.123C440.948 375.31 442.384 376 443.903 376H447.25C448.216 376 449 376.784 449 377.75C449 378.716 448.216 379.5 447.25 379.5H446.732C445.312 379.5 444.242 380.79 444.504 382.186L445.388 386.904C445.462 387.3 445.584 387.685 445.751 388.052L448 393L452.454 400.571C452.814 401.183 453.3 401.712 453.88 402.121L460.74 406.963C461.242 407.318 461.675 407.763 462.016 408.275L466.057 414.335C466.35 414.776 466.712 415.167 467.128 415.493L472.524 419.733C473.165 420.237 473.673 420.889 474.004 421.634L475.123 424.152C475.372 424.712 475.723 425.223 476.156 425.656L478.274 427.774C478.753 428.253 479.13 428.824 479.381 429.453L480.841 433.102C480.947 433.367 481.075 433.622 481.225 433.865L483.446 437.475C484.339 438.926 486.159 439.503 487.725 438.832L488.129 438.659C488.373 438.555 488.339 438.479 488.602 438.511C489.821 438.659 492.099 439.039 493.023 438.23L495 436.5L499.147 432.814C499.382 432.605 499.596 432.375 499.788 432.125L504.235 426.344C504.411 426.115 504.607 425.902 504.82 425.707L509.669 421.262C510.216 420.76 510.868 420.387 511.577 420.169L516.391 418.687C516.795 418.563 517.215 418.5 517.637 418.5C519.606 418.5 521.316 419.858 521.762 421.776L525.588 438.23C525.829 439.266 526.753 440 527.817 440C528.818 440 529.703 440.651 530.002 441.606L533.836 453.876C534.255 455.216 535.269 456.288 536.584 456.781C537.802 457.238 538.767 458.195 539.235 459.41L542.633 468.245C543.168 469.637 542.908 471.21 541.954 472.356C541.337 473.095 541 474.027 541 474.989V477.306C541 478.942 540.03 480.422 538.53 481.074C535.182 482.529 535.253 487.301 538.642 488.657L539.084 488.833C539.36 488.944 539.625 489.083 539.873 489.249L540.588 489.725C540.862 489.908 541.117 490.117 541.35 490.35L543.781 492.781C544.255 493.255 544.825 493.622 545.453 493.857L545.512 493.88C547.309 494.554 548.5 496.272 548.5 498.191C548.5 500.993 550.982 503.145 553.756 502.749L565.369 501.09C565.784 501.031 566.181 500.879 566.531 500.646C567.151 500.232 567.582 499.589 567.728 498.858L567.836 498.322C568.222 496.39 569.918 495 571.887 495H572.517C573.484 495 574.429 494.714 575.234 494.177L575.597 493.935C576.507 493.328 577.591 493.037 578.683 493.105L584.349 493.459C584.781 493.486 585.208 493.569 585.619 493.706L589.163 494.888C589.387 494.962 589.606 495.053 589.818 495.159L637.5 519L638.634 519.68C639.481 520.189 640 521.105 640 522.093C640 522.979 640.417 523.813 641.126 524.344L642.23 525.172C643.152 525.864 644.474 525.551 644.99 524.521C645.302 523.895 645.942 523.5 646.641 523.5H646.922C647.605 523.5 648.253 523.803 648.69 524.328L650.218 526.162C650.406 526.387 650.573 526.628 650.718 526.882L651.896 528.943C652.285 529.624 652.911 530.137 653.655 530.385L654.858 530.786C655.252 530.917 655.54 531.258 655.603 531.669L655.799 532.944C655.945 533.89 657.292 533.935 657.5 533L658.5 528.5L659.104 525.481C659.358 524.21 660.095 523.088 661.161 522.35L666 519L672 515L678.143 511.22C678.381 511.073 678.605 510.908 678.815 510.724L681.56 508.322C682.158 507.8 682.5 507.045 682.5 506.251V505.5C682.5 504.395 683.395 503.5 684.5 503.5H684.818C685.247 503.5 685.652 503.702 685.909 504.045C686.455 504.773 687.545 504.773 688.091 504.045C688.348 503.702 688.753 503.5 689.182 503.5H689.258C689.98 503.5 690.602 504.01 690.744 504.718L691.412 508.058C691.463 508.315 691.689 508.5 691.951 508.5C692.254 508.5 692.5 508.254 692.5 507.951V504.549C692.5 503.862 692.321 503.186 691.979 502.589L691.159 501.153C690.727 500.397 690.5 499.542 690.5 498.672V489.624C690.5 487.713 691.59 485.968 693.308 485.13L707.359 478.276C709.482 477.241 710.59 474.861 710.017 472.57L709 468.5L706.5 462L704.692 455.673C704.565 455.227 704.5 454.764 704.5 454.3V436.5V422C704.167 416 703.4 403.9 703 403.5C702.6 403.1 701.833 392.667 701.5 387.5L700.077 376.587C700.026 376.197 699.929 375.815 699.789 375.448L695.164 363.352C694.227 360.9 695.345 358.141 697.724 357.034L720.716 346.331C721.862 345.797 722.764 344.848 723.239 343.676L729.463 328.326C729.814 327.459 729.915 326.512 729.755 325.591L726.366 306.103C726.132 304.759 725.36 303.57 724.229 302.81L665.777 263.523C665.326 263.219 664.722 263.278 664.338 263.662C663.881 264.119 663.135 264.105 662.697 263.63L660.854 261.634C659.17 259.809 656.21 260.097 654.908 262.212L654.618 262.683C653.916 263.824 653.805 265.233 654.321 266.47L655.856 270.154C655.952 270.384 656.03 270.622 656.091 270.864L656.975 274.401C657.301 275.703 656.919 277.081 655.97 278.03C655.053 278.947 654.664 280.265 654.936 281.533L655.532 284.316C655.795 285.545 655.061 286.768 653.852 287.114C653.017 287.352 652.119 287.119 651.506 286.506L649.5 284.5L638.452 270.09C638.152 269.699 637.912 269.265 637.739 268.804L636.827 266.371C636.611 265.795 636.29 265.264 635.882 264.805L632.5 261L628.234 255.787C628.079 255.597 627.96 255.381 627.883 255.149L627.746 254.739C627.379 253.637 628.199 252.5 629.36 252.5C630.711 252.5 631.523 251.001 630.785 249.87L625 241L624.438 240.213C623.286 238.6 621.217 237.928 619.338 238.554L618.628 238.791C618.219 238.927 617.861 239.185 617.603 239.53C616.97 240.373 617.054 241.554 617.8 242.3L618.069 242.569C618.653 243.153 618.919 243.984 618.784 244.799L618.622 245.767C618.263 247.921 616.4 249.5 614.216 249.5H607.677C606.649 249.5 605.71 250.081 605.25 251L605.059 251.382C604.716 252.067 604.016 252.5 603.25 252.5C602.484 252.5 601.784 252.067 601.441 251.382L601.221 250.941C601.075 250.649 600.98 250.334 600.942 250.01L600.499 246.241C600.212 243.799 598.191 241.928 595.733 241.829L576.235 241.049C575.424 241.017 574.633 240.787 573.93 240.381L568.824 237.425C566.864 236.29 564.385 236.615 562.784 238.216L560.835 240.165C560.286 240.714 559.617 241.128 558.88 241.373L557.556 241.815C557.19 241.937 556.858 242.142 556.585 242.415C555.92 243.08 555.688 244.064 555.985 244.956L556.801 247.404C556.933 247.799 557 248.212 557 248.628V250.5C557 251.605 556.105 252.5 555 252.5C553.895 252.5 553 253.395 553 254.5V256.615C553 257.38 552.38 258 551.615 258C551.538 258 551.462 257.994 551.387 257.981L547.361 257.31C546.287 257.131 545.5 256.202 545.5 255.113V254.725C545.5 254.269 545.715 253.839 546.08 253.565C546.814 253.015 546.859 251.93 546.173 251.321L543.858 249.263C543.297 248.764 542.607 248.435 541.868 248.311L540.408 248.068C540.137 248.023 539.862 248 539.586 248H535.808C535.274 248 534.745 247.898 534.25 247.7L533.374 247.349C532.818 247.127 532.194 247.153 531.658 247.421C530.948 247.776 530.5 248.501 530.5 249.295V250.399C530.5 251.52 529.526 252.392 528.412 252.268C527.191 252.132 526.169 253.186 526.343 254.403L526.36 254.523C526.448 255.138 526.241 255.759 525.802 256.198L525.061 256.939C524.475 257.525 524.475 258.475 525.061 259.061L525.189 259.189C525.388 259.388 525.5 259.658 525.5 259.939C525.5 260.525 525.025 261 524.439 261H523.379C522.816 261 522.277 261.223 521.879 261.621L520.639 262.861C520.546 262.954 520.448 263.039 520.343 263.118C519.276 263.918 518.934 265.367 519.53 266.561L520.053 267.606C520.327 268.154 520.887 268.5 521.5 268.5C522.113 268.5 522.673 268.846 522.947 269.394L523.25 270C523.71 270.919 524.649 271.5 525.677 271.5H525.98C526.324 271.5 526.667 271.444 526.993 271.336L529.209 270.597C529.402 270.533 529.604 270.5 529.807 270.5C530.771 270.5 531.581 271.225 531.687 272.183L532.5 279.5L533.928 289.019C533.976 289.339 534.055 289.654 534.164 289.958L535.766 294.445C536.234 295.755 537.227 296.811 538.505 297.359L539.475 297.775C539.821 297.923 540.194 298 540.572 298H540.901C541.29 298 541.668 297.874 541.979 297.64L542.644 297.142C543.109 296.793 543.771 296.907 544.093 297.39C544.336 297.754 544.317 298.233 544.047 298.576L539.569 304.276C539.193 304.755 538.732 305.161 538.21 305.474L535.188 307.287C534.41 307.754 533.521 308 532.615 308H529.5H527.488C526.211 308 524.983 307.512 524.055 306.635L516.888 299.866C516.64 299.633 516.5 299.307 516.5 298.966C516.5 298.398 516.887 297.903 517.438 297.766L521.662 296.71C522.204 296.574 522.683 296.256 523.018 295.809C523.612 295.017 523.667 293.945 523.158 293.097L522.667 292.279C522.558 292.096 522.5 291.888 522.5 291.675C522.5 291.026 523.026 290.5 523.675 290.5H524.268C524.949 290.5 525.5 289.949 525.5 289.268C525.5 288.798 525.232 288.369 524.81 288.162L504.706 278.315C502.838 277.4 502.347 274.96 503.718 273.394C504.222 272.818 504.5 272.078 504.5 271.312V269.365C504.5 268.825 504.23 268.32 503.78 268.02C503.298 267.699 502.68 267.66 502.161 267.919L501.73 268.135C501.256 268.372 500.872 268.756 500.635 269.23L499.441 271.618C498.658 273.183 496.722 273.77 495.203 272.902L494.773 272.656C494.594 272.554 494.392 272.5 494.185 272.5C493.531 272.5 493 273.031 493 273.685V274.825C493 275.825 492.36 276.713 491.411 277.03L491.011 277.163C490.358 277.381 489.649 277.36 489.011 277.104L488.191 276.776C487.747 276.599 487.253 276.599 486.809 276.776C485.824 277.171 485.367 278.308 485.806 279.274L487.072 282.057C487.354 282.679 487.5 283.353 487.5 284.035V285.404C487.5 286.67 486.729 287.808 485.554 288.279C485.188 288.425 484.798 288.5 484.404 288.5H481.79C481.268 288.5 480.751 288.4 480.267 288.207C479.146 287.758 478.28 286.84 477.898 285.695L477.257 283.77C477.087 283.26 477 282.726 477 282.189V281.31C477 280.141 476.59 279.008 475.841 278.109L475.077 277.193C474.696 276.735 474.235 276.348 473.717 276.053L473.679 276.031C472.037 275.093 470.006 275.163 468.433 276.212C468.145 276.403 467.838 276.565 467.517 276.693L465.698 277.421C465.567 277.473 465.444 277.545 465.334 277.633L464.903 277.978C464.136 278.591 463 278.045 463 277.063C463 276.707 463.162 276.371 463.44 276.148L465.196 274.743C465.398 274.581 465.613 274.435 465.838 274.307L468.268 272.918C468.745 272.646 469.131 272.238 469.377 271.746C469.769 270.962 469.769 270.038 469.377 269.254L469.305 269.11C469.104 268.708 468.818 268.355 468.467 268.074L464.53 264.924C464.178 264.643 463.79 264.41 463.376 264.233L461.108 263.26C460.704 263.088 460.28 262.969 459.845 262.906L454.721 262.174C453.921 262.06 453.105 262.158 452.355 262.458C451.473 262.811 450.722 263.427 450.203 264.222L443.712 274.175C443.571 274.391 443.413 274.596 443.24 274.788Z"
        stroke="black" />
    <path
        d="M516.5 521.5V522M516.5 522V522C516.5 522.646 516.27 523.27 515.852 523.762L496.5 546.5L495.665 547.335C494.611 548.389 494.082 549.86 494.223 551.344L494.636 555.674C494.85 557.93 496.556 559.759 498.791 560.132L499.275 560.213C500.392 560.399 501.412 560.958 502.17 561.8L503.102 562.835C504.478 564.365 504.522 566.673 503.205 568.254V568.254C503.068 568.418 502.945 568.592 502.835 568.774L500.846 572.09C500.297 573.006 499.468 573.722 498.482 574.133L494.923 575.615C494.314 575.869 493.66 576 493 576H491.5H489.972C489.338 576 488.718 576.188 488.191 576.539L487.325 577.117C486.555 577.63 485.529 577.529 484.874 576.874V576.874C484.115 576.115 482.885 576.115 482.126 576.874L481.5 577.5L480.442 578.558C479.519 579.481 478.267 580 476.961 580V580C475.412 580 473.953 579.271 473.023 578.031L472.106 576.808C471.706 576.275 471.417 575.667 471.255 575.02L470.495 571.981C470.188 570.752 470.548 569.452 471.444 568.556L471.796 568.204C472.247 567.753 472.5 567.142 472.5 566.504V564.225C472.5 563.127 471.23 562.516 470.372 563.202V563.202C470.132 563.394 469.967 563.666 469.906 563.968L469.102 567.989C469.034 568.329 468.931 568.66 468.795 568.979L467.761 571.392C467.588 571.796 467.469 572.22 467.406 572.655L467.354 573.025C467.131 574.583 467.655 576.155 468.768 577.268L472.801 581.301C473.875 582.375 475.379 582.902 476.888 582.735L483.5 582L490.903 580.149C491.299 580.05 491.707 580 492.116 580H500.19C501.359 580 502.492 579.59 503.391 578.841L507.085 575.763C507.683 575.264 508.408 574.942 509.18 574.831V574.831C510.622 574.625 512.068 575.181 513.001 576.301L513.585 577.002C513.86 577.332 514.092 577.698 514.274 578.088L517.031 583.995C517.34 584.657 517.5 585.379 517.5 586.109V591.062C517.5 591.682 517.615 592.296 517.84 592.874L521 601L522.212 605.443C522.388 606.091 522.916 606.583 523.575 606.715V606.715C524.403 606.881 525 607.608 525 608.454C525 608.82 525 609.19 525 609.5C525 610.1 524.625 611.488 524.297 612.567C524.108 613.185 523.784 613.753 523.363 614.244L521.657 616.233C521.223 616.739 520.693 617.154 520.097 617.452L515 620C513 620.833 508.9 622.5 508.5 622.5C508.242 622.5 506.727 622.915 505.236 623.343C503.833 623.747 502.32 623.456 501.18 622.544L500.116 621.693C498.919 620.735 498.653 619.021 499.503 617.745V617.745C499.827 617.259 500 616.689 500 616.105V615.611C500 614.271 499.415 612.998 498.398 612.126L497.861 611.667C496.997 610.926 496.5 609.845 496.5 608.707V607.809C496.5 606.997 496.074 606.244 495.378 605.827V605.827C494.55 605.33 493.5 605.4 492.745 606.004L492.166 606.467C491.729 606.817 491.212 607.052 490.661 607.153L487.207 607.781C486.414 607.925 485.668 608.258 485.032 608.753L483.07 610.279C482.149 610.995 480.858 610.986 479.947 610.257V610.257C479.348 609.779 479 609.054 479 608.288V600C479 599.34 478.869 598.686 478.615 598.077L476.924 594.018C476.645 593.347 476.223 592.746 475.687 592.255L471.016 587.973C470.674 587.659 470.289 587.395 469.874 587.187L466.732 585.616C465.948 585.224 465.034 585.186 464.221 585.512L463.599 585.76C463.217 585.913 462.913 586.217 462.76 586.599V586.599C462.383 587.543 461.2 587.85 460.411 587.209L455.057 582.859C454.413 582.336 453.524 582.238 452.782 582.609L452.543 582.728C452.195 582.902 451.931 583.207 451.808 583.576V583.576C451.621 584.136 451.788 584.753 452.232 585.142L463.263 594.823C463.586 595.106 463.872 595.43 464.112 595.787L472.406 608.094L473.869 609.775C474.27 610.236 474.85 610.5 475.461 610.5V610.5C476.116 610.5 476.734 610.804 477.134 611.324L479.191 613.998C480.213 615.326 479.405 617.262 477.742 617.47V617.47C477.581 617.49 477.419 617.492 477.257 617.476L472.5 617L463 616H459.385C458.479 616 457.59 616.246 456.812 616.713L456.688 616.787C455.91 617.254 455.021 617.5 454.115 617.5H428.5C427.395 617.5 426.5 618.395 426.5 619.5V619.5C426.5 620.605 427.395 621.5 428.5 621.5H450.234C452.455 621.5 454.398 622.993 454.97 625.139L455.526 627.223C455.802 628.258 455.313 629.344 454.355 629.822V629.822C454.12 629.94 453.866 630.015 453.605 630.046L441 631.5H436.161C435.722 631.5 435.285 631.558 434.861 631.672L422.5 635C416.667 636.333 404.7 639.1 403.5 639.5C402 640 376 645.5 375.5 645.5C375.159 645.5 370.189 645.5 366.665 645.5C365.584 645.5 364.532 645.149 363.667 644.5L362.333 643.5C361.468 642.851 360.415 642.5 359.333 642.5H358.046C356.446 642.5 354.943 641.735 354.002 640.441L352.456 638.315C351.835 637.46 351.5 636.431 351.5 635.374V634.271C351.5 632.547 352.388 630.945 353.85 630.031L355.075 629.266C355.358 629.089 355.657 628.941 355.969 628.824L358.129 628.014C359.024 627.678 359.997 627.606 360.932 627.807L366.5 629L378.625 631.425C378.871 631.474 379.126 631.462 379.366 631.39L380.971 630.909C381.907 630.628 381.927 629.309 381 629V629L379.818 628.493C378.508 627.932 377.847 626.46 378.297 625.108L378.995 623.014C379.244 622.269 378.689 621.5 377.904 621.5V621.5C377.642 621.5 377.389 621.589 377.185 621.752L373.561 624.651C372.874 625.201 372.021 625.5 371.141 625.5H370.573C368.452 625.5 366.849 623.579 367.229 621.492V621.492C367.401 620.543 367.97 619.711 368.792 619.205L369.328 618.875C371.804 617.352 372.374 613.998 370.541 611.743L368.849 609.66C367.995 608.61 366.714 608 365.361 608V608C364.17 608 363.027 607.527 362.184 606.684L352.433 596.933C351.822 596.322 351.062 595.879 350.228 595.649L337.653 592.18C337.22 592.061 336.772 592 336.323 592H327.357C325.864 592 324.45 591.333 323.5 590.182L309.415 573.109C308.817 572.384 308.436 571.506 308.314 570.574L307 560.5V549.67C307 549.225 307.059 548.783 307.176 548.354L310 538L312.019 533.154C312.322 532.428 312.261 531.602 311.857 530.928V530.928C311.339 530.064 311.395 528.973 311.999 528.168L313.297 526.438C313.739 525.847 314.434 525.5 315.172 525.5H315.432C316.094 525.5 316.709 525.152 317.05 524.584V524.584C317.578 523.704 318.713 523.407 319.604 523.916L319.878 524.073C320.814 524.608 322 524.389 322.683 523.554L324.317 521.557C325.369 520.271 325.714 518.546 325.236 516.954L324.867 515.724C324.633 514.944 324.739 514.102 325.157 513.404L325.349 513.085C325.753 512.412 326.48 512 327.265 512V512C328.499 512 329.5 510.999 329.5 509.765V507.795C329.5 507.001 329.948 506.276 330.658 505.921L330.805 505.847C331.247 505.626 331.762 505.605 332.221 505.788V505.788C333.173 506.169 334.245 505.643 334.526 504.658L334.876 503.432C334.958 503.146 335.084 502.874 335.249 502.626L335.785 501.823C336.541 500.688 336.664 499.245 336.11 497.998L335.286 496.143C335.114 495.756 335.198 495.302 335.498 495.002V495.002C335.8 494.7 336.258 494.617 336.647 494.794L339.328 496.013C340.702 496.637 342.284 496.608 343.634 495.933L344.171 495.665C344.39 495.555 344.601 495.429 344.802 495.289L348.982 492.362C349.326 492.122 349.638 491.839 349.911 491.52L352.199 488.851C352.396 488.621 352.652 488.449 352.938 488.354V488.354C354.115 487.962 354.468 486.468 353.591 485.591L352.009 484.009C351.674 483.674 351.266 483.422 350.817 483.272L348.2 482.4C347.537 482.179 347.179 481.463 347.4 480.8V480.8C347.773 479.68 346.543 478.704 345.537 479.323L343.196 480.764C342.463 481.215 341.539 481.212 340.809 480.756L338 479L335.803 477.17C335.274 476.728 334.841 476.181 334.532 475.565L330.5 467.5L329.553 465.796C328.634 464.141 328.923 462.077 330.262 460.738L331.665 459.335C332.421 458.579 333.629 458.524 334.45 459.208V459.208C335.312 459.927 336.59 459.826 337.329 458.982L338.653 457.468C339.158 456.891 339.233 456.054 338.838 455.397V455.397C338.365 454.608 338.577 453.588 339.326 453.053L341.01 451.85C341.335 451.618 341.693 451.436 342.072 451.309L342.237 451.254C343.668 450.777 344.808 449.679 345.338 448.267L346 446.5L347 444.5L348.5 440.5L352.5 432L353.999 427.877C354.31 427.022 354.153 426.066 353.584 425.356V425.356C352.928 424.534 352.828 423.399 353.331 422.476L354.085 421.093C354.957 419.495 356.633 418.5 358.454 418.5H359.5H362.537C363.173 418.5 363.803 418.379 364.394 418.142L367.902 416.739C368.299 416.58 368.715 416.473 369.139 416.42L374.411 415.761C375.703 415.6 376.982 416.143 377.763 417.184V417.184C377.921 417.394 378.055 417.621 378.163 417.86L379.867 421.606C380.252 422.455 381.099 423 382.031 423V423C382.931 423 383.754 422.491 384.157 421.686L384.369 421.261C384.456 421.088 384.527 420.906 384.58 420.719L385.205 418.532C385.392 417.877 385.282 417.174 384.905 416.607L382.989 413.733C382.78 413.42 383.004 413 383.381 413V413C383.459 413 383.536 413.019 383.605 413.056L384.61 413.598C386.276 414.495 388.109 412.717 387.262 411.025V411.025C387.091 410.683 387.025 410.297 387.073 409.918L388 402.5L388.84 396.623C388.945 395.884 389.215 395.178 389.629 394.556L392.602 390.097C392.866 389.701 393.072 389.269 393.214 388.815L394.832 383.637C395.23 382.366 396.407 381.5 397.739 381.5H398.579C398.849 381.5 399.107 381.393 399.298 381.202V381.202C399.841 380.659 399.607 379.732 398.871 379.511L397.038 378.962C396.125 378.688 395.5 377.847 395.5 376.894V374.026C395.5 373.349 395.362 372.679 395.096 372.057L394 369.5L393.569 367.991C393.205 366.716 393.362 365.349 394.006 364.19L395.254 361.942C395.418 361.648 395.61 361.371 395.829 361.116L397.415 359.265C398.119 358.444 399.071 357.873 400.127 357.638L402.464 357.119C402.82 357.04 403.184 357 403.549 357H405.384C405.793 357 406.201 357.05 406.597 357.149L409.278 357.82C409.757 357.939 410.215 358.129 410.638 358.383L411.689 359.013C412.22 359.332 412.827 359.5 413.446 359.5V359.5C413.813 359.5 414.178 359.559 414.526 359.675L415.88 360.127C416.617 360.372 417.286 360.786 417.835 361.335L418.527 362.027C418.841 362.341 419.112 362.696 419.332 363.081L421 366L422.249 368.186C422.739 369.043 423.471 369.736 424.354 370.177L425 370.5L427.143 371.357C427.38 371.452 427.625 371.529 427.875 371.587L433.627 372.914C433.875 372.971 434.129 373 434.383 373V373C435.405 373 436.372 373.465 437.01 374.263L437.669 375.086C437.889 375.361 438.079 375.659 438.237 375.974L439.164 377.828C439.387 378.273 439.542 378.75 439.624 379.242L439.786 380.215C439.926 381.058 440.28 381.85 440.814 382.517L442 384L442.387 384.387C442.78 384.78 443 385.312 443 385.867V385.867C443 386.28 442.878 386.683 442.649 387.027L442.258 387.613C442.09 387.865 442 388.162 442 388.465V388.5C442 389.328 442.672 390 443.5 390V390C444.328 390 445 390.672 445 391.5V393V393.086C445 393.991 445.36 394.86 446 395.5V395.5L447.084 396.584C447.685 397.185 448.123 397.929 448.356 398.746L448.786 400.25C448.928 400.747 449.146 401.219 449.433 401.649L449.598 401.897C449.865 402.297 450.188 402.656 450.557 402.964L452.703 404.753C452.901 404.917 453.111 405.066 453.331 405.199L455.5 406.5L459 409L459.878 409.659C460.612 410.209 461.18 410.95 461.521 411.802L461.634 412.084C461.875 412.688 462.237 413.237 462.698 413.698V413.698C463.225 414.225 463.623 414.869 463.859 415.576L463.97 415.91C464.314 416.942 464.985 417.833 465.881 418.449L470.852 421.867C471.884 422.576 472.5 423.748 472.5 425V425V425C472.5 425.944 472.945 426.833 473.7 427.4L474.5 428L476.158 429.105C477.031 429.687 477.698 430.528 478.066 431.51L479 434L481 438L483.486 442.143C483.805 442.674 484.38 443 485 443V443C485.62 443 486.195 442.674 486.514 442.143L486.542 442.096C487.071 441.215 488.215 440.929 489.096 441.458L489.186 441.512C489.7 441.82 490.327 441.877 490.889 441.667L492.95 440.894C493.642 440.634 494.267 440.225 494.781 439.696L510.151 423.874C510.709 423.3 511.396 422.868 512.156 422.615L514 422L514.505 421.856C516.289 421.346 518.198 422.048 519.228 423.591V423.591C519.409 423.863 519.558 424.154 519.672 424.46L520.746 427.322C520.914 427.772 521.016 428.24 521.054 428.719C521.439 433.56 522.478 442 524 442V442C526.072 442 527.892 443.373 528.462 445.365L528.5 445.5L531 452.5L532.747 457.305C532.914 457.763 533.179 458.179 533.523 458.523L533.855 458.855C534.268 459.268 534.828 459.5 535.412 459.5V459.5C536.36 459.5 537.202 460.107 537.502 461.006L538.5 464L539.308 466.827C539.435 467.273 539.5 467.736 539.5 468.2V469.882C539.5 470.617 539.329 471.342 539 472V472C538.671 472.658 538.5 473.383 538.5 474.118V475.91C538.5 477.804 537.43 479.535 535.736 480.382L535.5 480.5L534.572 481.057C533.562 481.663 532.82 482.63 532.496 483.763L532.331 484.342C532.118 485.087 532.192 485.884 532.539 486.577V486.577C532.838 487.176 533.324 487.662 533.923 487.961L535.889 488.945C536.619 489.309 537.248 489.847 537.722 490.511L538.764 491.97C539.247 492.646 539.554 493.432 539.657 494.256L540 497V499.82C540 500.596 540.181 501.361 540.528 502.056L541.158 503.316C541.383 503.766 541.5 504.262 541.5 504.765V504.765C541.5 505.849 540.958 506.861 540.057 507.462L539.473 507.851C538.839 508.274 538.093 508.5 537.33 508.5V508.5C536.172 508.5 535.075 509.02 534.341 509.917L531.721 513.118C531.265 513.676 530.582 514 529.861 514V514C529.017 514 528.234 513.557 527.8 512.833L524.594 507.49C524.209 506.848 523.624 506.349 522.928 506.071L522.066 505.726C521.706 505.582 521.302 505.599 520.955 505.773V505.773C520.197 506.151 519.968 507.124 520.476 507.801L521 508.5L524.935 513.09C526.141 514.498 526.208 516.555 525.096 518.039L524.041 519.445C523.213 520.549 521.616 520.705 520.591 519.782V519.782C519.26 518.584 517.133 519.255 516.731 521L516.5 522Z"
        stroke="black" />
    <path
        d="M281.537 578.505L268.301 564.356C267.774 563.793 267.385 563.116 267.163 562.377L264.711 554.203C264.571 553.737 264.5 553.253 264.5 552.766V545.5V534.514C264.5 533.527 264.208 532.562 263.66 531.74L260.702 527.302C259.935 526.152 258.727 525.371 257.363 525.144L250.908 524.068C250.637 524.023 250.362 524 250.086 524H246.514C245.527 524 244.562 524.292 243.74 524.84L240.5 527L234.904 531.796C233.998 532.573 232.844 533 231.65 533H216.102C215.06 533 214.044 533.326 213.196 533.931L204.873 539.876C204.298 540.287 203.641 540.572 202.948 540.71L195.143 542.271C194.391 542.422 193.615 542.397 192.874 542.2L187.948 540.886C187.003 540.634 186.006 540.665 185.078 540.974L181.021 542.326C180.675 542.442 180.342 542.595 180.029 542.782L176.271 545.038C175.761 545.343 175.31 545.738 174.939 546.202L174.746 546.443C173.946 547.443 172.793 548.098 171.525 548.272L159 550L156.358 550.33C155.469 550.441 154.566 550.311 153.745 549.954L143.5 545.5L137 542.5L135.061 541.724C133.204 540.982 131.083 541.417 129.669 542.831L129.465 543.035C127.984 544.516 125.736 544.917 123.834 544.039L123.413 543.845C121.638 543.025 119.548 543.316 118.064 544.588L117.635 544.956C117.215 545.316 116.857 545.744 116.577 546.221L103.821 567.953C103.608 568.316 103.441 568.705 103.326 569.11L100.892 577.626C100.636 578.524 100.636 579.476 100.892 580.374L102.917 587.46C103.29 588.764 104.176 589.86 105.372 590.498L107.171 591.458C109.368 592.629 110.368 595.239 109.517 597.578L109 599L107.599 602.363C106.918 603.997 107.152 605.869 108.214 607.286L110.928 610.904C111.913 612.217 112.19 613.929 111.672 615.485L111 617.5L109.151 626.745C109.051 627.245 108.875 627.727 108.629 628.174L104.119 636.375C103.713 637.113 103.5 637.942 103.5 638.784V647.5C103.5 650.261 105.739 652.5 108.5 652.5H116.072C116.685 652.5 117.294 652.613 117.867 652.833L122.633 654.667C123.206 654.887 123.815 655 124.428 655H127H128.278C129.843 655 130.457 657.029 129.155 657.896C129.052 657.965 128.941 658.022 128.825 658.065L121.423 660.792C120.196 661.244 118.837 661.168 117.667 660.584L117.118 660.309C114.729 659.114 111.844 660.404 111.142 662.981C111.048 663.326 110.91 663.657 110.733 663.967L109.783 665.629C109.274 666.521 108.501 667.235 107.571 667.672L102.519 670.05C101.234 670.655 100.267 671.777 99.8588 673.137L97.9843 679.386C97.6701 680.433 97.7079 681.554 98.0918 682.578L98.6816 684.151C98.8922 684.712 99 685.307 99 685.907V690.083C99 691.885 98.0296 693.548 96.4603 694.435L89.4339 698.407C88.2027 699.103 86.7343 699.245 85.3925 698.798L82.2697 697.757C81.7599 697.587 81.226 697.5 80.6886 697.5H78.6101C77.0609 697.5 75.6952 698.516 75.25 700C74.8048 701.484 73.4391 702.5 71.8899 702.5H71.454C69.2703 702.5 67.5 704.27 67.5 706.454C67.5 707.448 67.1256 708.406 66.4514 709.136L62.925 712.956C62.0166 713.94 60.7383 714.5 59.3992 714.5C57.8889 714.5 56.4667 715.211 55.5605 716.419L55.4279 716.596C54.5245 717.801 54.212 719.348 54.5772 720.809L56.6982 729.293C56.8964 730.086 57.2858 730.818 57.8324 731.425L64.0524 738.336C65.2562 739.674 65.6484 741.555 65.0793 743.262L63.7566 747.23C63.5866 747.74 63.5 748.274 63.5 748.811V754.924C63.5 755.916 63.967 756.85 64.7604 757.445C66.2352 758.551 66.4496 760.682 65.2249 762.06L63.9774 763.463C63.6609 763.819 63.2938 764.127 62.888 764.377L57.3052 767.812C57.102 767.937 56.908 768.077 56.7247 768.229L53.2016 771.165C51.9678 772.193 51.7559 774.008 52.7195 775.293C53.4868 776.316 53.5256 777.712 52.8161 778.776L50.8397 781.74C50.2922 782.562 50 783.527 50 784.514V786.657C50 787.537 50.2321 788.401 50.6729 789.162L54.7492 796.203C55.239 797.049 55.966 797.733 56.8403 798.17L58.9047 799.202C60.5096 800.005 62.4214 799.886 63.9143 798.89L64.7404 798.34C65.5617 797.792 66.5268 797.5 67.5139 797.5H69.6996C71.4159 797.5 72.9848 796.53 73.7524 794.995C74.2349 794.03 75.0459 793.269 76.0396 792.849L87.5 788L97.571 784.935C98.5033 784.651 99.3324 784.101 99.9563 783.352L106.5 775.5L108.066 772.994C108.671 772.027 109.587 771.296 110.664 770.921L118.258 768.28C119.677 767.786 121.242 767.957 122.521 768.744L122.753 768.886C125.1 770.331 128.174 769.603 129.625 767.26L133.5 761L137.999 755.377C138.948 754.19 140.384 753.5 141.903 753.5H146.706C147.866 753.5 148.99 753.097 149.885 752.36L157 746.5L165.534 740.811C165.844 740.604 166.129 740.364 166.386 740.094L174.973 731.055C175.322 730.687 175.726 730.375 176.169 730.128L183.44 726.089C184.137 725.702 184.731 725.154 185.172 724.491L189.66 717.76C190.208 716.938 190.5 715.973 190.5 714.986V712.828C190.5 711.958 190.727 711.103 191.159 710.347L192.168 708.581C192.388 708.196 192.659 707.841 192.973 707.527L196.271 704.229C197.362 703.138 198.895 702.612 200.427 702.803L202.807 703.101C204.752 703.344 206.375 704.701 206.96 706.571L207.717 708.994C208.207 710.563 207.895 712.273 206.882 713.567L200.61 721.581C199.91 722.477 198.835 723 197.698 723H195.733C194.776 723 194 723.776 194 724.733C194 725.222 194.206 725.687 194.567 726.016L195.528 726.889C197.626 728.796 200.927 728.408 202.524 726.065L214.5 708.5L218.625 703.917C218.874 703.64 219.154 703.392 219.458 703.177L226.331 698.325C227.095 697.786 227.692 697.043 228.055 696.181L230.508 690.356C231.109 688.928 232.507 688 234.057 688C235.548 688 236.905 687.139 237.54 685.789L240.249 680.034C240.416 679.679 240.624 679.345 240.869 679.039L245.814 672.858C246.266 672.293 246.835 671.832 247.482 671.509L248.718 670.891C249.862 670.319 250.744 669.33 251.181 668.128L253.822 660.865C254.229 659.745 255.293 659 256.484 659C257.431 659 258.316 658.527 258.841 657.739L282 623L287.222 613.506C287.407 613.17 287.63 612.856 287.886 612.571L294.482 605.242C295.723 603.863 296.098 601.91 295.457 600.169L293.524 594.923C293.182 593.995 292.573 593.19 291.773 592.608L288.446 590.188C287.824 589.735 287.314 589.146 286.957 588.464L282.315 579.601C282.106 579.202 281.844 578.833 281.537 578.505Z"
        stroke="black" />
</svg>